<svg width="117" height="90" viewBox="0 0 117 90" fill="none" xmlns="http://www.w3.org/2000/svg">
<path d="M60.7959 30.0447V41.7734C65.2372 42.4851 69.2782 44.7481 72.1942 48.1569C75.1114 51.5657 76.7126 55.8974 76.7126 60.3754C76.7126 64.8533 75.1114 69.185 72.1942 72.5938C69.2782 76.0026 65.2372 78.2655 60.7959 78.9772V89.968H116.779V76.3866H108.153C107.561 76.3866 106.994 76.1525 106.575 75.7358C106.156 75.3192 105.921 74.7541 105.921 74.1649V46.5859C105.928 46.0007 106.165 45.4417 106.584 45.0301C107.001 44.6185 107.566 44.3876 108.153 44.3877H116.763V30.0447H60.7959Z" fill="#66B821"/>
<path d="M56.4278 30.0447V41.7734C51.9878 42.4851 47.9468 44.7481 45.0308 48.1569C42.1136 51.5657 40.5123 55.8974 40.5123 60.3754C40.5123 64.8533 42.1136 69.185 45.0308 72.5938C47.9468 76.0026 51.9878 78.2655 56.4278 78.9772V89.968H0.446289V76.3866H9.05591C9.64841 76.3866 10.2152 76.1525 10.6339 75.7358C11.0525 75.3192 11.2876 74.7541 11.2876 74.1649V46.5859C11.2815 46.0034 11.0452 45.4467 10.6314 45.0356C10.2164 44.6244 9.65698 44.3918 9.07183 44.3877H0.462204V30.0447H56.4278Z" fill="#007A32"/>
<path d="M58.6117 0C32.3948 0.117758 9.06322 9.98591 0.460938 24.6351H6.76911C8.7131 22.141 10.9925 19.9247 13.5425 18.0484L24.2418 24.6351H32.7498L44.1518 7.57578L55.8843 24.6351H58.6117V0ZM27.4271 21.5263L17.4929 15.4106C20.6525 13.5206 23.9774 11.9203 27.4271 10.6297V21.5263ZM31.8035 18.2368V9.1616C34.1686 8.43935 36.6133 7.80345 39.1363 7.26962L31.8035 18.2368ZM48.2124 5.81726C50.9876 5.5111 53.8105 5.32267 56.6494 5.25987V18.0877L48.2124 5.81726Z" fill="#007A32"/>
<path d="M44.751 60.3728C44.7534 57.0367 45.9176 53.8047 48.0452 51.2277C50.1741 48.6508 53.1341 46.8887 56.4211 46.2418V74.5038C53.1329 73.8583 50.1716 72.0966 48.044 69.5194C45.9152 66.9422 44.7522 63.7093 44.751 60.3728Z" fill="#007A32"/>
<path d="M116.763 48.8018H110.385V71.9452H116.763V48.8018Z" fill="#66B821"/>
<path d="M6.8323 48.8018H0.453125V71.9452H6.8323V48.8018Z" fill="#007A32"/>
<path d="M72.4735 60.3728C72.4711 57.0367 71.3069 53.8047 69.1793 51.2277C67.0517 48.6508 64.0916 46.8887 60.8047 46.2418V74.5038C64.0916 73.8583 67.0529 72.0966 69.1805 69.5194C71.3094 66.9422 72.4735 63.7093 72.4735 60.3728Z" fill="#66B821"/>
<path d="M58.6123 24.6664H61.3483L73.0808 7.60719L84.4828 24.6664H92.9908L103.69 18.0799C106.24 19.956 108.519 22.1723 110.463 24.6664H116.772C108.161 9.98591 84.8292 0.117758 58.6123 0V24.6664ZM89.797 10.6297C93.2467 11.9153 96.5728 13.5102 99.7324 15.3949L89.797 21.5105V10.6297ZM78.0963 7.24606C80.6193 7.7799 83.0799 8.41579 85.4291 9.13805V18.2368L78.0963 7.24606ZM60.5918 18.0877V5.25987C63.4307 5.33053 66.261 5.51893 69.0288 5.81726L60.5918 18.0877Z" fill="#66B821"/>
</svg>
